<svg width="128" height="128" viewBox="0 0 128 128" fill="none" xmlns="http://www.w3.org/2000/svg">
<path d="M32.0294 12.6691C32.3216 12.1613 32.7421 11.7397 33.2485 11.4467C33.7548 11.1537 34.3292 10.9996 34.9138 11H92.0862C92.6708 10.9996 93.2452 11.1537 93.7515 11.4467C94.2579 11.7397 94.6784 12.1613 94.9707 12.6691L123.554 62.3309C123.846 62.8384 124 63.414 124 64C124 64.586 123.846 65.1616 123.554 65.6691L94.9651 115.331C94.6728 115.839 94.2523 116.26 93.746 116.553C93.2396 116.846 92.6653 117 92.0807 117H34.9138C34.3292 117 33.7548 116.846 33.2485 116.553C32.7421 116.26 32.3216 115.839 32.0294 115.331L3.44589 65.6691C3.15378 65.1616 3 64.586 3 64C3 63.414 3.15378 62.8384 3.44589 62.3309L32.0349 12.6691H32.0294Z" stroke="#FAA681" stroke-width="1.4375" stroke-linecap="round" stroke-linejoin="round"/>
<path d="M68.0417 49.875C68.0417 49.875 72.5833 40.7917 72.5833 31.7084C72.5833 22.625 63.5 13.5417 63.5 13.5417C63.5 13.5417 54.4167 22.625 54.4167 31.7084C54.4167 40.7917 58.9583 49.875 58.9583 49.875M63.5 77.125C67.1136 77.125 70.5791 75.6895 73.1343 73.1343C75.6895 70.5792 77.125 67.1136 77.125 63.5C77.125 59.8864 75.6895 56.4209 73.1343 53.8657C70.5791 51.3105 67.1136 49.875 63.5 49.875C59.8864 49.875 56.4209 51.3105 53.8657 53.8657C51.3105 56.4209 49.875 59.8864 49.875 63.5C49.875 67.1136 51.3105 70.5792 53.8657 73.1343C56.4209 75.6895 59.8864 77.125 63.5 77.125V77.125Z" stroke="#FAA681" stroke-width="1.4375" stroke-miterlimit="1.5" stroke-linecap="round" stroke-linejoin="round"/>
<path d="M69.9219 50.6562C69.9219 50.6562 73.1328 41.0188 79.5593 34.5968C85.9812 28.1749 98.825 28.1749 98.825 28.1749C98.825 28.1749 98.825 41.0188 92.4031 47.4452C85.9812 53.8671 76.3438 57.0781 76.3438 57.0781M49.875 58.9583C49.875 58.9583 40.7916 54.4167 31.7083 54.4167C22.625 54.4167 13.5416 63.5 13.5416 63.5C13.5416 63.5 22.625 72.5833 31.7083 72.5833C40.7916 72.5833 49.875 68.0417 49.875 68.0417V58.9583ZM68.0416 77.125C68.0416 77.125 72.5833 86.2083 72.5833 95.2917C72.5833 104.375 63.5 113.458 63.5 113.458C63.5 113.458 54.4166 104.375 54.4166 95.2917C54.4166 86.2083 58.9583 77.125 58.9583 77.125H68.0416ZM77.125 58.9583C77.125 58.9583 86.2083 54.4167 95.2916 54.4167C104.375 54.4167 113.458 63.5 113.458 63.5C113.458 63.5 104.375 72.5833 95.2916 72.5833C86.2083 72.5833 77.125 68.0417 77.125 68.0417V58.9583ZM57.078 50.6562C57.078 50.6562 53.8671 41.0188 47.4406 34.5968C41.0187 28.1749 28.1749 28.1749 28.1749 28.1749C28.1749 28.1749 28.1749 41.0188 34.5968 47.4452C41.0187 53.8671 50.6561 57.0781 50.6561 57.0781L57.078 50.6562ZM50.6561 69.9219C50.6561 69.9219 41.0187 73.1329 34.5968 79.5593C28.1749 85.9813 28.1749 98.8251 28.1749 98.8251C28.1749 98.8251 41.0187 98.8251 47.4406 92.4032C53.8671 85.9813 57.078 76.3438 57.078 76.3438L50.6561 69.9219ZM76.3483 69.9219C76.3483 69.9219 85.9767 73.1329 92.4031 79.5593C98.825 85.9813 98.825 98.8251 98.825 98.8251C98.825 98.8251 85.9812 98.8251 79.5593 92.4032C73.1328 85.9813 69.9219 76.3438 69.9219 76.3438L76.3483 69.9219Z" stroke="#FAA681" stroke-width="1.4375" stroke-miterlimit="1.5" stroke-linecap="round" stroke-linejoin="round"/>
</svg>
