<svg width="71" height="75" viewBox="0 0 71 75" fill="none" xmlns="http://www.w3.org/2000/svg">
<path d="M27.9203 1.20726L27.9202 1.20731L27.9253 1.21642L36.0894 16.023L36.3587 16.875L36.0894 17.727L27.9253 32.5336L27.9252 32.5335L27.9203 32.5427C27.7084 32.9467 27.2484 33.25 26.7403 33.25H10.1429C9.63474 33.25 9.17469 32.9467 8.96278 32.5427L8.96287 32.5427L8.95785 32.5336L0.793744 17.727L0.524392 16.875L0.793743 16.023L8.95785 1.21642L8.95795 1.21648L8.96278 1.20726C9.17469 0.803288 9.63474 0.5 10.1429 0.5H26.7403C27.2484 0.5 27.7084 0.803288 27.9203 1.20726ZM27.9203 42.4573L27.9202 42.4573L27.9253 42.4664L36.0894 57.273L36.3587 58.125L36.0894 58.977L27.9253 73.7836L27.9252 73.7835L27.9203 73.7927C27.7084 74.1967 27.2484 74.5 26.7403 74.5H10.1429C9.63474 74.5 9.17469 74.1967 8.96278 73.7927L8.96287 73.7927L8.95785 73.7836L0.793744 58.977L0.524392 58.125L0.793744 57.273L8.95785 42.4664L8.95795 42.4665L8.96278 42.4573C9.17469 42.0533 9.63474 41.75 10.1429 41.75H26.7403C27.2484 41.75 27.7084 42.0533 27.9203 42.4573ZM62.0372 21.8323L62.0371 21.8323L62.0421 21.8414L70.2063 36.648L70.4756 37.5L70.2063 38.352L62.0421 53.1586L62.0421 53.1585L62.0372 53.1677C61.8253 53.5717 61.3653 53.875 60.8571 53.875H44.2597C43.7516 53.875 43.2916 53.5717 43.0797 53.1677L43.0798 53.1677L43.0747 53.1586L34.9106 38.352L34.6413 37.5L34.9106 36.648L43.0747 21.8414L43.0748 21.8415L43.0797 21.8323C43.2916 21.4283 43.7516 21.125 44.2597 21.125H60.8571C61.3653 21.125 61.8253 21.4283 62.0372 21.8323Z" stroke="hsla(201, 100%, 95%, 0.8)"/>
</svg>
