<svg id="Livello_1" data-name="Livello 1" xmlns="http://www.w3.org/2000/svg" xmlns:xlink="http://www.w3.org/1999/xlink" viewBox="0 0 736 299.42"><defs><style>.cls-1{fill:none;}.cls-2{clip-path:url(#clip-path);}.cls-3,.cls-7{fill:#968d00;}.cls-4{fill:#d8c800;}.cls-5,.cls-6{fill:#fff;}.cls-6,.cls-7{fill-rule:evenodd;}</style><clipPath id="clip-path" transform="translate(-0.64 -24.3)"><rect class="cls-1" y="23.67" width="737" height="301"/></clipPath></defs><g class="cls-2"><path class="cls-3" d="M331.89,128.25a9.79,9.79,0,1,1,9.78,10.22,10,10,0,0,1-9.78-10.22Z" transform="translate(-0.64 -24.3)"/><path class="cls-3" d="M310.75,128.25a7.54,7.54,0,1,1,7.54,7.88,7.71,7.71,0,0,1-7.54-7.88Z" transform="translate(-0.64 -24.3)"/><path class="cls-4" d="M292.9,128.25a5.9,5.9,0,1,1,5.89,6.15,6,6,0,0,1-5.89-6.15Z" transform="translate(-0.64 -24.3)"/><path class="cls-4" d="M277.78,128.25a4.53,4.53,0,1,1,4.53,4.73,4.63,4.63,0,0,1-4.53-4.73Z" transform="translate(-0.64 -24.3)"/><path class="cls-4" d="M265.39,128.25a3.16,3.16,0,1,1,3.16,3.3,3.23,3.23,0,0,1-3.16-3.3Z" transform="translate(-0.64 -24.3)"/><path class="cls-3" d="M357.52,128.25a11.41,11.41,0,1,1,11.39,11.91,11.66,11.66,0,0,1-11.39-11.91Z" transform="translate(-0.64 -24.3)"/><path class="cls-3" d="M385.83,128.71a9.79,9.79,0,1,1,9.78,10.22,10,10,0,0,1-9.78-10.22Z" transform="translate(-0.64 -24.3)"/><path class="cls-3" d="M411.46,128.71a7.55,7.55,0,1,1,7.54,7.88,7.7,7.7,0,0,1-7.54-7.88Z" transform="translate(-0.64 -24.3)"/><path class="cls-4" d="M432.6,128.71a5.9,5.9,0,1,1,5.89,6.16,6,6,0,0,1-5.89-6.16Z" transform="translate(-0.64 -24.3)"/><path class="cls-4" d="M450.44,128.71a4.53,4.53,0,1,1,4.53,4.74,4.64,4.64,0,0,1-4.53-4.74Z" transform="translate(-0.64 -24.3)"/><path class="cls-4" d="M465.57,128.71a3.16,3.16,0,1,1,3.16,3.31,3.23,3.23,0,0,1-3.16-3.31Z" transform="translate(-0.64 -24.3)"/><path class="cls-4" d="M466.54,107.89a2,2,0,1,1,2,2,2,2,0,0,1-2-2Z" transform="translate(-0.64 -24.3)"/><path class="cls-4" d="M460.52,88.71a2,2,0,1,1,2,2,2,2,0,0,1-2-2Z" transform="translate(-0.64 -24.3)"/><path class="cls-4" d="M447.11,66.06a2,2,0,1,1,2,2,2,2,0,0,1-2-2Z" transform="translate(-0.64 -24.3)"/><path class="cls-4" d="M426.16,47.73a2,2,0,1,1,2,2,2,2,0,0,1-2-2Z" transform="translate(-0.64 -24.3)"/><path class="cls-4" d="M402.07,34.88a2,2,0,1,1,2,2,2,2,0,0,1-2-2Z" transform="translate(-0.64 -24.3)"/><path class="cls-4" d="M382.87,28.91a2,2,0,1,1,2,2,2,2,0,0,1-2-2Z" transform="translate(-0.64 -24.3)"/><path class="cls-4" d="M449.91,106.26a3.34,3.34,0,1,1,3.34,3.34,3.33,3.33,0,0,1-3.34-3.34Z" transform="translate(-0.64 -24.3)"/><path class="cls-4" d="M431.75,104.71a5.36,5.36,0,1,1,5.35,5.35,5.35,5.35,0,0,1-5.35-5.35Z" transform="translate(-0.64 -24.3)"/><path class="cls-4" d="M410.23,104.41a5.76,5.76,0,1,1,5.76,5.77,5.76,5.76,0,0,1-5.76-5.77Z" transform="translate(-0.64 -24.3)"/><path class="cls-3" d="M387.43,102.09a6.48,6.48,0,1,1,6.48,6.48,6.48,6.48,0,0,1-6.48-6.48Z" transform="translate(-0.64 -24.3)"/><path class="cls-4" d="M387.07,80a5.67,5.67,0,1,1,5.67,5.67A5.67,5.67,0,0,1,387.07,80Z" transform="translate(-0.64 -24.3)"/><path class="cls-4" d="M408.86,82.83A5.16,5.16,0,1,1,414,88a5.16,5.16,0,0,1-5.16-5.16Z" transform="translate(-0.64 -24.3)"/><path class="cls-4" d="M431,82.7a4.15,4.15,0,1,1,4.15,4.15A4.15,4.15,0,0,1,431,82.7Z" transform="translate(-0.64 -24.3)"/><path class="cls-4" d="M445.73,86a2.57,2.57,0,1,1,2.56,2.56A2.57,2.57,0,0,1,445.73,86Z" transform="translate(-0.64 -24.3)"/><path class="cls-4" d="M385.88,59.39a5,5,0,1,1,5,5,5,5,0,0,1-5-5Z" transform="translate(-0.64 -24.3)"/><path class="cls-4" d="M407.13,63.18A3.84,3.84,0,1,1,411,67a3.83,3.83,0,0,1-3.84-3.83Z" transform="translate(-0.64 -24.3)"/><path class="cls-4" d="M428.71,62.85a3.21,3.21,0,1,1,3.21,3.2,3.21,3.21,0,0,1-3.21-3.2Z" transform="translate(-0.64 -24.3)"/><path class="cls-4" d="M385.17,40.73a3.7,3.7,0,1,1,3.7,3.69,3.7,3.7,0,0,1-3.7-3.69Z" transform="translate(-0.64 -24.3)"/><path class="cls-4" d="M405.61,45.79a2.9,2.9,0,1,1,2.9,2.9,2.89,2.89,0,0,1-2.9-2.9Z" transform="translate(-0.64 -24.3)"/><path class="cls-4" d="M466.54,149.54a2,2,0,1,1,2,2,2,2,0,0,1-2-2Z" transform="translate(-0.64 -24.3)"/><path class="cls-4" d="M460.52,168.72a2,2,0,1,1,2,2,2,2,0,0,1-2-2Z" transform="translate(-0.64 -24.3)"/><path class="cls-4" d="M447.11,191.37a2,2,0,1,1,2,2,2,2,0,0,1-2-2Z" transform="translate(-0.64 -24.3)"/><path class="cls-4" d="M426.16,209.7a2,2,0,1,1,2,2,2,2,0,0,1-2-2Z" transform="translate(-0.64 -24.3)"/><path class="cls-4" d="M402.07,222.55a2,2,0,1,1,2,2,2,2,0,0,1-2-2Z" transform="translate(-0.64 -24.3)"/><path class="cls-4" d="M382.87,228.52a2,2,0,1,1,2,2,2,2,0,0,1-2-2Z" transform="translate(-0.64 -24.3)"/><path class="cls-4" d="M449.91,151.17a3.34,3.34,0,1,1,3.34,3.34,3.34,3.34,0,0,1-3.34-3.34Z" transform="translate(-0.64 -24.3)"/><path class="cls-4" d="M431.75,152.72a5.36,5.36,0,1,1,5.35,5.36,5.35,5.35,0,0,1-5.35-5.36Z" transform="translate(-0.64 -24.3)"/><path class="cls-4" d="M410.23,153a5.76,5.76,0,1,1,5.76,5.76,5.76,5.76,0,0,1-5.76-5.76Z" transform="translate(-0.64 -24.3)"/><path class="cls-4" d="M387.43,155.34a6.48,6.48,0,1,1,6.48,6.47,6.48,6.48,0,0,1-6.48-6.47Z" transform="translate(-0.64 -24.3)"/><path class="cls-4" d="M387.07,177.41a5.67,5.67,0,1,1,5.67,5.67,5.67,5.67,0,0,1-5.67-5.67Z" transform="translate(-0.64 -24.3)"/><path class="cls-4" d="M408.86,174.59a5.16,5.16,0,1,1,5.16,5.16,5.16,5.16,0,0,1-5.16-5.16Z" transform="translate(-0.64 -24.3)"/><path class="cls-4" d="M431,174.73a4.15,4.15,0,1,1,4.15,4.15,4.15,4.15,0,0,1-4.15-4.15Z" transform="translate(-0.64 -24.3)"/><path class="cls-4" d="M445.73,171.45a2.57,2.57,0,1,1,2.56,2.56,2.56,2.56,0,0,1-2.56-2.56Z" transform="translate(-0.64 -24.3)"/><path class="cls-4" d="M385.88,198a5,5,0,1,1,5,5,5,5,0,0,1-5-5Z" transform="translate(-0.64 -24.3)"/><path class="cls-4" d="M407.13,194.25a3.84,3.84,0,1,1,3.84,3.83,3.84,3.84,0,0,1-3.84-3.83Z" transform="translate(-0.64 -24.3)"/><path class="cls-4" d="M428.71,194.57a3.21,3.21,0,1,1,3.21,3.21,3.21,3.21,0,0,1-3.21-3.21Z" transform="translate(-0.64 -24.3)"/><path class="cls-4" d="M385.17,216.7a3.7,3.7,0,1,1,3.7,3.69,3.7,3.7,0,0,1-3.7-3.69Z" transform="translate(-0.64 -24.3)"/><path class="cls-4" d="M405.61,211.64a2.9,2.9,0,1,1,2.9,2.89,2.9,2.9,0,0,1-2.9-2.89Z" transform="translate(-0.64 -24.3)"/><path class="cls-4" d="M366.93,26.29a2,2,0,1,1,2,2,2,2,0,0,1-2-2Z" transform="translate(-0.64 -24.3)"/><path class="cls-3" d="M361.4,100.17a7.52,7.52,0,1,1,7.51,7.52,7.52,7.52,0,0,1-7.51-7.52Z" transform="translate(-0.64 -24.3)"/><path class="cls-3" d="M362.78,77.86A6.14,6.14,0,1,1,368.91,84a6.13,6.13,0,0,1-6.13-6.14Z" transform="translate(-0.64 -24.3)"/><path class="cls-4" d="M363.87,58a5,5,0,1,1,5,5,5,5,0,0,1-5-5Z" transform="translate(-0.64 -24.3)"/><path class="cls-4" d="M365.22,40.63a3.7,3.7,0,1,1,3.69,3.69,3.69,3.69,0,0,1-3.69-3.69Z" transform="translate(-0.64 -24.3)"/><path class="cls-4" d="M266.76,107.43a2,2,0,1,1,2,2,2,2,0,0,1-2-2Z" transform="translate(-0.64 -24.3)"/><path class="cls-4" d="M272.78,88.24a2,2,0,1,1,2,2,2,2,0,0,1-2-2Z" transform="translate(-0.64 -24.3)"/><path class="cls-4" d="M286.2,65.59a2,2,0,1,1,2,2,2,2,0,0,1-2-2Z" transform="translate(-0.64 -24.3)"/><path class="cls-4" d="M307.15,47.27a2,2,0,1,1,2,2,2,2,0,0,1-2-2Z" transform="translate(-0.64 -24.3)"/><path class="cls-4" d="M331.24,34.41a2,2,0,1,1,2,2,2,2,0,0,1-2-2Z" transform="translate(-0.64 -24.3)"/><path class="cls-4" d="M350.44,28.44a2,2,0,1,1,2,2,2,2,0,0,1-2-2Z" transform="translate(-0.64 -24.3)"/><path class="cls-4" d="M280.69,105.8a3.34,3.34,0,1,1,3.34,3.34,3.34,3.34,0,0,1-3.34-3.34Z" transform="translate(-0.64 -24.3)"/><path class="cls-4" d="M294.82,104.24a5.36,5.36,0,1,1,5.36,5.36,5.36,5.36,0,0,1-5.36-5.36Z" transform="translate(-0.64 -24.3)"/><path class="cls-4" d="M315.53,104a5.76,5.76,0,1,1,5.76,5.76,5.76,5.76,0,0,1-5.76-5.76Z" transform="translate(-0.64 -24.3)"/><path class="cls-3" d="M336.9,101.63a6.48,6.48,0,1,1,6.47,6.48,6.48,6.48,0,0,1-6.47-6.48Z" transform="translate(-0.64 -24.3)"/><path class="cls-4" d="M338.87,79.56a5.67,5.67,0,1,1,5.67,5.67,5.67,5.67,0,0,1-5.67-5.67Z" transform="translate(-0.64 -24.3)"/><path class="cls-4" d="M318.1,82.37a5.16,5.16,0,1,1,5.16,5.16,5.16,5.16,0,0,1-5.16-5.16Z" transform="translate(-0.64 -24.3)"/><path class="cls-4" d="M298,82.24a4.16,4.16,0,1,1,4.16,4.15A4.15,4.15,0,0,1,298,82.24Z" transform="translate(-0.64 -24.3)"/><path class="cls-4" d="M286.42,85.51A2.57,2.57,0,1,1,289,88.08a2.57,2.57,0,0,1-2.57-2.57Z" transform="translate(-0.64 -24.3)"/><path class="cls-4" d="M341.32,58.92a5,5,0,1,1,5,5,5,5,0,0,1-5-5Z" transform="translate(-0.64 -24.3)"/><path class="cls-4" d="M322.48,62.72a3.84,3.84,0,1,1,3.84,3.83,3.84,3.84,0,0,1-3.84-3.83Z" transform="translate(-0.64 -24.3)"/><path class="cls-4" d="M302.16,62.39a3.21,3.21,0,1,1,3.21,3.2,3.21,3.21,0,0,1-3.21-3.2Z" transform="translate(-0.64 -24.3)"/><path class="cls-4" d="M344.72,40.27a3.7,3.7,0,1,1,3.7,3.69,3.7,3.7,0,0,1-3.7-3.69Z" transform="translate(-0.64 -24.3)"/><path class="cls-4" d="M325.88,45.33a2.9,2.9,0,1,1,2.89,2.89,2.89,2.89,0,0,1-2.89-2.89Z" transform="translate(-0.64 -24.3)"/><path class="cls-4" d="M366.93,230.21a2,2,0,1,1,2,2,2,2,0,0,1-2-2Z" transform="translate(-0.64 -24.3)"/><path class="cls-4" d="M361.4,156.33a7.52,7.52,0,1,1,7.51,7.52,7.52,7.52,0,0,1-7.51-7.52Z" transform="translate(-0.64 -24.3)"/><path class="cls-4" d="M362.78,178.64a6.14,6.14,0,1,1,6.13,6.14,6.12,6.12,0,0,1-6.13-6.14Z" transform="translate(-0.64 -24.3)"/><path class="cls-4" d="M363.87,198.48a5,5,0,1,1,5,5,5,5,0,0,1-5-5Z" transform="translate(-0.64 -24.3)"/><path class="cls-4" d="M365.22,215.87a3.7,3.7,0,1,1,3.69,3.7,3.69,3.69,0,0,1-3.69-3.7Z" transform="translate(-0.64 -24.3)"/><path class="cls-4" d="M266.76,149.08a2,2,0,1,1,2,2,2,2,0,0,1-2-2Z" transform="translate(-0.64 -24.3)"/><path class="cls-4" d="M272.78,168.26a2,2,0,1,1,2,2,2,2,0,0,1-2-2Z" transform="translate(-0.64 -24.3)"/><path class="cls-4" d="M286.2,190.91a2,2,0,1,1,2,2,2,2,0,0,1-2-2Z" transform="translate(-0.64 -24.3)"/><path class="cls-4" d="M307.15,209.23a2,2,0,1,1,2,2,2,2,0,0,1-2-2Z" transform="translate(-0.64 -24.3)"/><path class="cls-4" d="M331.24,222.09a2,2,0,1,1,2,2,2,2,0,0,1-2-2Z" transform="translate(-0.64 -24.3)"/><path class="cls-4" d="M350.44,228.06a2,2,0,1,1,2,2,2,2,0,0,1-2-2Z" transform="translate(-0.64 -24.3)"/><path class="cls-4" d="M280.69,150.7a3.34,3.34,0,1,1,3.34,3.35,3.34,3.34,0,0,1-3.34-3.35Z" transform="translate(-0.64 -24.3)"/><path class="cls-4" d="M294.82,152.26a5.36,5.36,0,1,1,5.36,5.36,5.36,5.36,0,0,1-5.36-5.36Z" transform="translate(-0.64 -24.3)"/><path class="cls-4" d="M315.53,152.55a5.76,5.76,0,1,1,5.76,5.76,5.76,5.76,0,0,1-5.76-5.76Z" transform="translate(-0.64 -24.3)"/><path class="cls-4" d="M336.9,154.87a6.48,6.48,0,1,1,6.47,6.48,6.48,6.48,0,0,1-6.47-6.48Z" transform="translate(-0.64 -24.3)"/><path class="cls-4" d="M338.87,177a5.67,5.67,0,1,1,5.67,5.67,5.67,5.67,0,0,1-5.67-5.67Z" transform="translate(-0.64 -24.3)"/><path class="cls-4" d="M318.1,174.13a5.16,5.16,0,1,1,5.16,5.16,5.16,5.16,0,0,1-5.16-5.16Z" transform="translate(-0.64 -24.3)"/><path class="cls-4" d="M298,174.26a4.16,4.16,0,1,1,4.16,4.15,4.15,4.15,0,0,1-4.16-4.15Z" transform="translate(-0.64 -24.3)"/><path class="cls-4" d="M286.42,171a2.57,2.57,0,1,1,2.57,2.56,2.56,2.56,0,0,1-2.57-2.56Z" transform="translate(-0.64 -24.3)"/><path class="cls-4" d="M341.32,197.58a5,5,0,1,1,5,5,5,5,0,0,1-5-5Z" transform="translate(-0.64 -24.3)"/><path class="cls-4" d="M322.48,193.78a3.84,3.84,0,1,1,3.84,3.84,3.84,3.84,0,0,1-3.84-3.84Z" transform="translate(-0.64 -24.3)"/><path class="cls-4" d="M302.16,194.11a3.21,3.21,0,1,1,3.21,3.2,3.21,3.21,0,0,1-3.21-3.2Z" transform="translate(-0.64 -24.3)"/><path class="cls-4" d="M344.72,216.24a3.7,3.7,0,1,1,3.7,3.69,3.7,3.7,0,0,1-3.7-3.69Z" transform="translate(-0.64 -24.3)"/><path class="cls-4" d="M325.88,211.17a2.9,2.9,0,1,1,2.89,2.9,2.89,2.89,0,0,1-2.89-2.9Z" transform="translate(-0.64 -24.3)"/><path class="cls-5" d="M22.84,323.35V311.58a4.69,4.69,0,0,0-1.55-3.93,7.86,7.86,0,0,0-5-1.33,13.54,13.54,0,0,0-4.43.78,26.4,26.4,0,0,0-4.26,2H7.5V300.6H4.69v22.75H7.5V310.82a17.21,17.21,0,0,1,4.21-2.28,11.43,11.43,0,0,1,3.79-.7,5.23,5.23,0,0,1,3.51,1,4.23,4.23,0,0,1,1,3.29v11.23Z" transform="translate(-0.64 -24.3)"/><path class="cls-6" d="M54.92,315.27a8.67,8.67,0,0,0-2.86-6.83,10.87,10.87,0,0,0-6.83-2.12,11.94,11.94,0,0,0-7.19,2,7.74,7.74,0,0,0-3,6.56c0,3.21,1,5.41,2.8,6.8a12,12,0,0,0,7.41,2.06,13.62,13.62,0,0,0,6.62-1.4,7.56,7.56,0,0,0,2.94-2.78L52,319.29c-1.4,2.13-3.57,3.21-6.69,3.21-3.45,0-7.15-1.71-7.33-7.23Zm-17-1.14c.2-4.62,3.36-6.58,7.26-6.58,3.7,0,6.49,2.57,6.81,6.58Z" transform="translate(-0.64 -24.3)"/><path class="cls-6" d="M83.1,323.35v-.13c-.74-.54-.87-1.11-.87-2.56V312.4c0-4.62-2.4-6.08-7.61-6.08-5.41,0-7.48,2.17-8,4.42l2.88.19c.29-1.69,1.77-3.37,5-3.37,3.72,0,4.89,1.54,4.89,4.37v.65c-10.09,1-13.78,3.05-13.78,6.58,0,2.79,2.07,4.56,7.36,4.56a11.35,11.35,0,0,0,6.48-1.9h.07a2,2,0,0,0,.7,1.53Zm-3.67-3a9.53,9.53,0,0,1-6,2.08c-3.81,0-5-1.44-5-3.39,0-2.79,3.27-4.52,10.93-5.32v6.63Z" transform="translate(-0.64 -24.3)"/><polygon class="cls-5" points="98.11 299.04 98.11 276.29 95.31 276.29 95.31 299.04 98.11 299.04 98.11 299.04"/><path class="cls-5" d="M112.3,306.7h-2.57v1.39h2.57v10.5c0,3.79,2,5.13,5.18,5.13a10,10,0,0,0,3.66-.72l-.54-1.35a5.79,5.79,0,0,1-2.57.66c-1.8,0-2.93-1.39-2.93-4.47v-9.75h4.75V306.7H115.1v-3.58h-2.8v3.58Z" transform="translate(-0.64 -24.3)"/><path class="cls-5" d="M150,323.35V311.58a4.69,4.69,0,0,0-1.55-3.93,7.86,7.86,0,0,0-5-1.33,13.54,13.54,0,0,0-4.43.78,26.4,26.4,0,0,0-4.26,2h-.09V300.6h-2.81v22.75h2.81V310.82a17.39,17.39,0,0,1,4.21-2.28,11.43,11.43,0,0,1,3.79-.7,5.21,5.21,0,0,1,3.51,1,4.23,4.23,0,0,1,1,3.29v11.23Z" transform="translate(-0.64 -24.3)"/><path class="cls-6" d="M198.94,323.35v-.13c-.74-.54-.87-1.11-.87-2.56V312.4c0-4.62-2.4-6.08-7.62-6.08-5.4,0-7.48,2.17-8,4.42l2.87.19c.3-1.69,1.77-3.37,5.06-3.37,3.72,0,4.89,1.54,4.89,4.37v.65c-10.1,1-13.78,3.05-13.78,6.58,0,2.79,2.07,4.56,7.35,4.56a11.38,11.38,0,0,0,6.49-1.9h.06a2,2,0,0,0,.7,1.53Zm-3.68-3a9.5,9.5,0,0,1-5.94,2.08c-3.82,0-5-1.44-5-3.39,0-2.79,3.27-4.52,10.92-5.32v6.63Z" transform="translate(-0.64 -24.3)"/><path class="cls-5" d="M229.91,323.35V311.58a4.69,4.69,0,0,0-1.55-3.93,7.86,7.86,0,0,0-5-1.33,13.54,13.54,0,0,0-4.43.78,26.51,26.51,0,0,0-4.26,2h-.16l.07-2.4h-2.81v16.65h2.81V310.82a17.39,17.39,0,0,1,4.21-2.28,11.51,11.51,0,0,1,3.76-.7,5.21,5.21,0,0,1,3.54,1,4.16,4.16,0,0,1,1,3.26v11.24Z" transform="translate(-0.64 -24.3)"/><path class="cls-6" d="M258.66,321.51l-.06,1.84h2.81V300.6H258.6v7.89h-.06a12.11,12.11,0,0,0-7-2.17c-5.4,0-9.38,3-9.38,8.72,0,5.23,3.14,8.68,9.48,8.68a11.32,11.32,0,0,0,6.94-2.21Zm-6.69.81c-4.44,0-7-2.82-7-7.27s2.56-7.33,7-7.33a10.2,10.2,0,0,1,6.62,2.65v9.13a8.68,8.68,0,0,1-6.59,2.82Z" transform="translate(-0.64 -24.3)"/><path class="cls-5" d="M307.31,308.31c.85,2.64,1.7,4.66,2.61,7.48l2.72,7.56h3.41l6.59-16.65h-2.79l-2.73,7.46c-.88,2.45-1.77,4.91-2.64,7.72h-.17c-.85-2.65-1.76-5.23-2.66-7.68l-2.76-7.5h-3.31l-2.76,7.51c-.9,2.45-1.75,4.89-2.64,7.67H300c-.83-2.78-1.77-5.45-2.63-7.58l-2.74-7.6h-2.77l6.58,16.65h3.39l2.73-7.43c.9-2.74,1.74-4.85,2.57-7.61Z" transform="translate(-0.64 -24.3)"/><path class="cls-6" d="M352.23,315.27a8.68,8.68,0,0,0-2.87-6.83,10.85,10.85,0,0,0-6.83-2.12,11.91,11.91,0,0,0-7.18,2,7.74,7.74,0,0,0-3,6.56c0,3.21,1,5.41,2.81,6.8a12,12,0,0,0,7.41,2.06,13.55,13.55,0,0,0,6.61-1.4,7.53,7.53,0,0,0,3-2.78l-2.89-.25c-1.39,2.13-3.56,3.21-6.69,3.21-3.44,0-7.15-1.71-7.33-7.23Zm-17-1.14c.2-4.62,3.36-6.58,7.26-6.58,3.7,0,6.49,2.57,6.8,6.58Z" transform="translate(-0.64 -24.3)"/><polygon class="cls-5" points="366.61 299.04 366.61 276.29 363.8 276.29 363.8 299.04 366.61 299.04 366.61 299.04"/><polygon class="cls-5" points="383.15 299.04 383.15 276.29 380.35 276.29 380.35 299.04 383.15 299.04 383.15 299.04"/><path class="cls-5" d="M415.66,323.35V311.58a4.66,4.66,0,0,0-1.55-3.93,7.85,7.85,0,0,0-5-1.33,13.49,13.49,0,0,0-4.43.78,26.21,26.21,0,0,0-4.27,2h-.15l.06-2.4h-2.81v16.65h2.81V310.82a17.27,17.27,0,0,1,4.22-2.28,11.47,11.47,0,0,1,3.76-.7,5.18,5.18,0,0,1,3.53,1,4.16,4.16,0,0,1,1,3.26v11.24Z" transform="translate(-0.64 -24.3)"/><path class="cls-6" d="M447.75,315.27a8.68,8.68,0,0,0-2.87-6.83,10.85,10.85,0,0,0-6.83-2.12,11.91,11.91,0,0,0-7.18,2,7.74,7.74,0,0,0-3,6.56c0,3.21,1,5.41,2.81,6.8a12,12,0,0,0,7.4,2.06,13.56,13.56,0,0,0,6.62-1.4,7.6,7.6,0,0,0,2.95-2.78l-2.89-.25c-1.39,2.13-3.56,3.21-6.69,3.21-3.44,0-7.15-1.71-7.33-7.23Zm-17-1.14c.21-4.62,3.37-6.58,7.26-6.58,3.7,0,6.49,2.57,6.81,6.58Z" transform="translate(-0.64 -24.3)"/><path class="cls-5" d="M473.28,309.2a4.49,4.49,0,0,0-2.24-2,12,12,0,0,0-4.9-.87,12.16,12.16,0,0,0-5.44,1,3.38,3.38,0,0,0-2.12,3.06A3.31,3.31,0,0,0,459.9,313c1,.87,2.27,1.36,5.23,2.07s4.16,1.05,5,1.81a2.73,2.73,0,0,1,1,2.09,3,3,0,0,1-1.22,2.58,7.14,7.14,0,0,1-3.91,1c-2.62,0-4.57-.8-5.31-2.07l-2.6.24a5.52,5.52,0,0,0,3,2.29,14.12,14.12,0,0,0,5.06.75,10.7,10.7,0,0,0,5.88-1.44,4.06,4.06,0,0,0,2-3.58,3.52,3.52,0,0,0-1.32-2.81c-1-.86-2.46-1.42-5.49-2.17s-4-1-4.87-1.7a2.35,2.35,0,0,1-1-1.84,2.25,2.25,0,0,1,1.21-2,8.77,8.77,0,0,1,3.59-.64c2.61,0,4.15.91,4.7,1.89l2.45-.23Z" transform="translate(-0.64 -24.3)"/><path class="cls-5" d="M499.31,309.2a4.51,4.51,0,0,0-2.25-2,12,12,0,0,0-4.9-.87,12.14,12.14,0,0,0-5.43,1,3.38,3.38,0,0,0-2.12,3.06,3.3,3.3,0,0,0,1.31,2.58c1,.87,2.28,1.36,5.23,2.07s4.17,1.05,5,1.81a2.72,2.72,0,0,1,1,2.09,3,3,0,0,1-1.21,2.58,7.19,7.19,0,0,1-3.92,1c-2.61,0-4.57-.8-5.3-2.07l-2.61.24a5.52,5.52,0,0,0,3,2.29,14.12,14.12,0,0,0,5.06.75,10.73,10.73,0,0,0,5.89-1.44,4.07,4.07,0,0,0,2-3.58,3.49,3.49,0,0,0-1.32-2.81c-1-.86-2.45-1.42-5.49-2.17s-4-1-4.86-1.7a2.34,2.34,0,0,1-1-1.84,2.26,2.26,0,0,1,1.22-2,8.73,8.73,0,0,1,3.59-.64c2.61,0,4.15.91,4.7,1.89l2.45-.23Z" transform="translate(-0.64 -24.3)"/><path class="cls-5" d="M533.11,308.42l.07-1.72h-2.81v16.65h2.81V310.54a10.6,10.6,0,0,1,2.36-1.94,4.86,4.86,0,0,1,2.41-.71,4.67,4.67,0,0,1,1.45.2,2.94,2.94,0,0,1,.9.46l.38-1.61a4.45,4.45,0,0,0-1-.43,6.39,6.39,0,0,0-4.23.4,10,10,0,0,0-2.18,1.51Z" transform="translate(-0.64 -24.3)"/><path class="cls-6" d="M570.26,315.27a8.67,8.67,0,0,0-2.86-6.83,10.85,10.85,0,0,0-6.83-2.12,11.91,11.91,0,0,0-7.18,2,7.74,7.74,0,0,0-3,6.56c0,3.21,1,5.41,2.8,6.8a12,12,0,0,0,7.41,2.06,13.56,13.56,0,0,0,6.62-1.4,7.6,7.6,0,0,0,3-2.78l-2.89-.25c-1.39,2.13-3.56,3.21-6.69,3.21-3.45,0-7.15-1.71-7.33-7.23Zm-17-1.14c.21-4.62,3.37-6.58,7.26-6.58,3.7,0,6.49,2.57,6.81,6.58Z" transform="translate(-0.64 -24.3)"/><path class="cls-5" d="M595.8,309.2a4.49,4.49,0,0,0-2.24-2,14.78,14.78,0,0,0-10.34.13,3.38,3.38,0,0,0-2.12,3.06,3.28,3.28,0,0,0,1.32,2.58c1,.87,2.27,1.36,5.23,2.07s4.16,1.05,5,1.81a2.73,2.73,0,0,1,1,2.09,3,3,0,0,1-1.22,2.58,7.17,7.17,0,0,1-3.92,1c-2.61,0-4.56-.8-5.3-2.07l-2.6.24a5.48,5.48,0,0,0,3,2.29,14.12,14.12,0,0,0,5.06.75,10.72,10.72,0,0,0,5.88-1.44,4.06,4.06,0,0,0,2-3.58,3.52,3.52,0,0,0-1.32-2.81c-1-.86-2.46-1.42-5.49-2.17s-4-1-4.87-1.7a2.35,2.35,0,0,1-1-1.84,2.25,2.25,0,0,1,1.21-2,8.77,8.77,0,0,1,3.59-.64c2.61,0,4.15.91,4.7,1.89l2.45-.23Z" transform="translate(-0.64 -24.3)"/><path class="cls-6" d="M627,315.27a8.67,8.67,0,0,0-2.86-6.83,10.85,10.85,0,0,0-6.83-2.12,11.91,11.91,0,0,0-7.18,2,7.74,7.74,0,0,0-3,6.56c0,3.21,1,5.41,2.8,6.8a12,12,0,0,0,7.41,2.06,13.56,13.56,0,0,0,6.62-1.4,7.6,7.6,0,0,0,3-2.78l-2.89-.25c-1.39,2.13-3.57,3.21-6.69,3.21-3.45,0-7.15-1.71-7.33-7.23Zm-17-1.14c.2-4.62,3.37-6.58,7.26-6.58,3.7,0,6.49,2.57,6.81,6.58Z" transform="translate(-0.64 -24.3)"/><path class="cls-6" d="M655.21,323.35v-.13c-.74-.54-.88-1.11-.88-2.56V312.4c0-4.62-2.4-6.08-7.61-6.08-5.41,0-7.48,2.17-8,4.42l2.88.19c.29-1.69,1.77-3.37,5-3.37,3.72,0,4.89,1.54,4.89,4.37v.65c-10.09,1-13.78,3.05-13.78,6.58,0,2.79,2.07,4.56,7.36,4.56a11.33,11.33,0,0,0,6.48-1.9h.07a2,2,0,0,0,.7,1.53Zm-3.68-3a9.52,9.52,0,0,1-5.94,2.08c-3.82,0-5-1.44-5-3.39,0-2.79,3.26-4.52,10.92-5.32v6.63Z" transform="translate(-0.64 -24.3)"/><path class="cls-5" d="M669.79,308.42l.06-1.72h-2.8v16.65h2.8V310.54a10.64,10.64,0,0,1,2.37-1.94,4.83,4.83,0,0,1,2.41-.71,4.67,4.67,0,0,1,1.45.2,3.19,3.19,0,0,1,.9.46l.37-1.61a4.28,4.28,0,0,0-1.05-.43,6.36,6.36,0,0,0-4.22.4,10,10,0,0,0-2.19,1.51Z" transform="translate(-0.64 -24.3)"/><path class="cls-5" d="M703.23,310c-.92-2.12-3.18-3.71-7.41-3.71-5.2,0-9.06,2.6-9.06,8.67,0,6.39,3.62,8.73,9,8.73,4.27,0,6.86-1.63,7.77-4.24l-2.86-.23c-.76,1.95-2.22,3.14-4.91,3.14-3.22,0-6.11-1.66-6.11-7.39,0-5.05,2.85-7.34,6.16-7.34a4.75,4.75,0,0,1,4.63,2.58l2.82-.21Z" transform="translate(-0.64 -24.3)"/><path class="cls-5" d="M733.52,323.35V311.58a4.69,4.69,0,0,0-1.55-3.93,7.86,7.86,0,0,0-5-1.33,13.54,13.54,0,0,0-4.43.78,26.4,26.4,0,0,0-4.26,2h-.09V300.6h-2.81v22.75h2.81V310.82a17.21,17.21,0,0,1,4.21-2.28,11.43,11.43,0,0,1,3.79-.7,5.18,5.18,0,0,1,3.5,1,4.19,4.19,0,0,1,1,3.29v11.23Z" transform="translate(-0.64 -24.3)"/><polygon class="cls-3" points="538.93 262.01 586.88 262.01 586.88 255.22 553.84 255.22 553.84 225.26 538.93 225.26 538.93 262.01 538.93 262.01"/><path class="cls-7" d="M598.14,286.32h15.1l5.31-8.19h25.36l5.13,8.19h15.47l-25.35-36.75H623.87l-25.73,36.75Zm33.14-27.69h.19L640,272.11H622.45l8.83-13.48Z" transform="translate(-0.64 -24.3)"/><path class="cls-7" d="M694.76,270H711c6.36,0,10.73,1.49,10.73,5.25s-5.13,4.84-11,4.84h-16V270Zm-14.91,16.37h32.86c12.25,0,23.93-3.19,23.93-10.66,0-4.58-4.18-8-12.44-9.31,5.89-1.55,9.21-4.07,9.21-7.67,0-6.85-8.74-9.11-21.65-9.11H679.85v36.75Zm14.91-30.47h14c5.32,0,10.26.72,10.26,4.22,0,3.09-3.9,4.37-9.12,4.37h-15.1v-8.59Z" transform="translate(-0.64 -24.3)"/><path class="cls-6" d="M27.9,249.57.64,286.32H5.1l8.65-11.79H46.22l8.55,11.79h4.46L32.45,249.57Zm-12.82,23,15.09-20.8h.19l14.53,20.8Z" transform="translate(-0.64 -24.3)"/><polygon class="cls-5" points="72.91 262.01 77.08 262.01 77.08 228.04 77.27 228.04 103.39 262.01 107.56 262.01 133.4 228.04 133.59 228.04 133.59 262.01 137.76 262.01 137.76 225.26 131.78 225.26 105.57 259.49 105.38 259.49 78.89 225.26 72.91 225.26 72.91 262.01 72.91 262.01"/><path class="cls-6" d="M164,268.2h23c8.93,0,19.47,1.54,19.47,7.82,0,5.46-7.5,8.34-19.47,8.34H164V268.2Zm-4.18,18.12H187c14.15,0,23.65-3.61,23.65-10.3,0-7.41-13.49-9.16-15.29-9l-.19-.11c7.88-.51,13.2-3.86,13.2-7.82,0-4.73-5.23-9.52-21.37-9.52H159.82v36.75Zm4.18-34.8h23c9,0,17.19,1.86,17.19,7.16,0,4.48-5.89,7.56-17.19,7.56H164V251.52Z" transform="translate(-0.64 -24.3)"/><path class="cls-6" d="M233.31,267.63V251.52h24.12c9.11,0,17.28,2.12,17.28,7.67,0,5.92-7.41,8.44-17.28,8.44Zm-4.18,18.69h4.18V269.59h24.12c11.87,0,15.1,2.88,15.95,6.43s-.76,7.78,1.8,10.3h4.66c-2.76-2-1.62-6.08-2.28-9.89s-3.13-7.25-13.2-7.87v-.1c9-.83,14.53-4.48,14.53-9.42,0-7.1-9.59-9.47-21.46-9.47h-28.3v36.75Z" transform="translate(-0.64 -24.3)"/><path class="cls-6" d="M359.87,267.94c0-10.75-12-19.25-32.19-19.25s-32.28,8.5-32.28,19.25,12,19.25,32.28,19.25,32.19-8.49,32.19-19.25Zm-60.3,0c0-9.42,10.35-17.29,28.11-17.29s28,7.87,28,17.29-10.35,17.3-28,17.3-28.11-7.88-28.11-17.3Z" transform="translate(-0.64 -24.3)"/><path class="cls-5" d="M426.71,260.07c-.66-8.08-11.77-11.38-25.92-11.38-10.73,0-22.79,2.73-22.79,9.78s11.58,8.5,23.07,9.78,23.17,2.37,23.17,8.6-11.49,8.39-19.65,8.39c-13.39,0-25.26-3-24.41-11.07H376c-.19,9.47,12.73,13,28.59,13,10.35,0,23.83-2.73,23.83-10.34,0-7.31-11.58-8.91-23.17-10.19s-23.08-2.27-23.08-8.19c0-6.07,10.92-7.82,18.62-7.82,12.53,0,21.27,3.14,21.74,9.42Z" transform="translate(-0.64 -24.3)"/><polygon class="cls-5" points="446.94 262.01 451.12 262.01 451.12 225.26 446.94 225.26 446.94 262.01 446.94 262.01"/><path class="cls-6" d="M493.35,249.57,466.1,286.32h4.46l8.64-11.79h32.48l8.54,11.79h4.47l-26.78-36.75Zm-12.82,23,15.1-20.8h.19l14.53,20.8Z" transform="translate(-0.64 -24.3)"/></g></svg>