<svg width="121" height="106" viewBox="0 0 121 106" fill="none" xmlns="http://www.w3.org/2000/svg">
<path d="M29.0294 1.66912C29.3216 1.16133 29.7421 0.739714 30.2485 0.446704C30.7548 0.153694 31.3292 -0.000375246 31.9138 6.86312e-07H89.0862C89.6708 -0.000375246 90.2452 0.153694 90.7515 0.446704C91.2579 0.739714 91.6784 1.16133 91.9706 1.66912L120.554 51.3309C120.846 51.8384 121 52.414 121 53C121 53.586 120.846 54.1616 120.554 54.6691L91.9651 104.331C91.6728 104.839 91.2523 105.26 90.746 105.553C90.2396 105.846 89.6653 106 89.0807 106H31.9138C31.3292 106 30.7548 105.846 30.2485 105.553C29.7421 105.26 29.3216 104.839 29.0294 104.331L0.44589 54.6691C0.153782 54.1616 0 53.586 0 53C0 52.414 0.153782 51.8384 0.44589 51.3309L29.0349 1.66912H29.0294Z" fill="#F4A261"/>
</svg>
