<svg id="Livello_1" data-name="Livello 1" xmlns="http://www.w3.org/2000/svg" viewBox="0 0 420.73 423.57"><defs><style>.cls-1{fill:#968d00;}.cls-2{fill:#d8c800;}</style></defs><path class="cls-1" d="M175.12,252.08c0-11.5,8.93-20.82,19.93-20.82S215,240.58,215,252.08s-8.92,20.83-19.93,20.83-19.93-9.33-19.93-20.83Z" transform="translate(-39.63 -40.3)"/><path class="cls-1" d="M132,252.08c0-8.86,6.88-16.05,15.36-16.05s15.37,7.19,15.37,16.05-6.88,16-15.37,16S132,261,132,252.08Z" transform="translate(-39.63 -40.3)"/><path class="cls-2" d="M95.69,252.08a12,12,0,1,1,12,12.54,12.27,12.27,0,0,1-12-12.54Z" transform="translate(-39.63 -40.3)"/><path class="cls-2" d="M64.87,252.08a9.24,9.24,0,1,1,9.23,9.65,9.44,9.44,0,0,1-9.23-9.65Z" transform="translate(-39.63 -40.3)"/><path class="cls-2" d="M39.63,252.08a6.45,6.45,0,1,1,6.44,6.73,6.6,6.6,0,0,1-6.44-6.73Z" transform="translate(-39.63 -40.3)"/><path class="cls-1" d="M227.34,252.08c0-13.4,10.39-24.26,23.22-24.26s23.22,10.86,23.22,24.26-10.4,24.26-23.22,24.26-23.22-10.86-23.22-24.26Z" transform="translate(-39.63 -40.3)"/><path class="cls-1" d="M285,253c0-11.5,8.92-20.82,19.93-20.82s19.93,9.32,19.93,20.82S316,273.85,305,273.85,285,264.52,285,253Z" transform="translate(-39.63 -40.3)"/><path class="cls-1" d="M337.24,253c0-8.86,6.87-16.05,15.36-16.05S368,244.16,368,253s-6.88,16-15.36,16-15.36-7.18-15.36-16Z" transform="translate(-39.63 -40.3)"/><path class="cls-2" d="M380.31,253a12,12,0,1,1,12,12.54,12.28,12.28,0,0,1-12-12.54Z" transform="translate(-39.63 -40.3)"/><path class="cls-2" d="M416.67,253a9.24,9.24,0,1,1,9.23,9.65,9.44,9.44,0,0,1-9.23-9.65Z" transform="translate(-39.63 -40.3)"/><path class="cls-2" d="M447.48,253a6.45,6.45,0,1,1,6.45,6.73,6.59,6.59,0,0,1-6.45-6.73Z" transform="translate(-39.63 -40.3)"/><path class="cls-2" d="M449.47,210.59a4,4,0,1,1,4,4,4.05,4.05,0,0,1-4-4Z" transform="translate(-39.63 -40.3)"/><path class="cls-2" d="M437.2,171.51a4.05,4.05,0,1,1,4.05,4.05,4.06,4.06,0,0,1-4.05-4.05Z" transform="translate(-39.63 -40.3)"/><path class="cls-2" d="M409.87,125.36a4,4,0,1,1,4.05,4,4,4,0,0,1-4.05-4Z" transform="translate(-39.63 -40.3)"/><path class="cls-2" d="M367.19,88a4.05,4.05,0,1,1,4.05,4,4,4,0,0,1-4.05-4Z" transform="translate(-39.63 -40.3)"/><path class="cls-2" d="M318.1,61.84a4.05,4.05,0,1,1,4,4,4.05,4.05,0,0,1-4-4Z" transform="translate(-39.63 -40.3)"/><path class="cls-2" d="M279,49.68a4,4,0,1,1,4,4,4,4,0,0,1-4-4Z" transform="translate(-39.63 -40.3)"/><path class="cls-2" d="M415.57,207.28a6.82,6.82,0,1,1,6.82,6.81,6.82,6.82,0,0,1-6.82-6.81Z" transform="translate(-39.63 -40.3)"/><path class="cls-2" d="M378.57,204.11A10.92,10.92,0,1,1,389.49,215a10.91,10.91,0,0,1-10.92-10.92Z" transform="translate(-39.63 -40.3)"/><path class="cls-2" d="M334.73,203.52a11.74,11.74,0,1,1,11.74,11.74,11.74,11.74,0,0,1-11.74-11.74Z" transform="translate(-39.63 -40.3)"/><path class="cls-1" d="M288.28,198.78a13.2,13.2,0,1,1,13.2,13.2,13.2,13.2,0,0,1-13.2-13.2Z" transform="translate(-39.63 -40.3)"/><path class="cls-2" d="M287.54,153.81a11.56,11.56,0,1,1,11.55,11.56,11.55,11.55,0,0,1-11.55-11.56Z" transform="translate(-39.63 -40.3)"/><path class="cls-2" d="M332,159.55a10.51,10.51,0,1,1,10.51,10.51A10.52,10.52,0,0,1,332,159.55Z" transform="translate(-39.63 -40.3)"/><path class="cls-2" d="M377,159.28a8.46,8.46,0,1,1,8.46,8.45,8.46,8.46,0,0,1-8.46-8.45Z" transform="translate(-39.63 -40.3)"/><path class="cls-2" d="M407.06,166a5.23,5.23,0,1,1,5.23,5.22,5.22,5.22,0,0,1-5.23-5.22Z" transform="translate(-39.63 -40.3)"/><path class="cls-2" d="M285.13,111.77A10.27,10.27,0,1,1,295.4,122a10.27,10.27,0,0,1-10.27-10.27Z" transform="translate(-39.63 -40.3)"/><path class="cls-2" d="M328.42,119.5a7.82,7.82,0,1,1,7.81,7.82,7.81,7.81,0,0,1-7.81-7.82Z" transform="translate(-39.63 -40.3)"/><path class="cls-2" d="M372.39,118.84a6.53,6.53,0,1,1,6.53,6.52,6.52,6.52,0,0,1-6.53-6.52Z" transform="translate(-39.63 -40.3)"/><path class="cls-2" d="M283.68,73.76a7.53,7.53,0,1,1,7.53,7.52,7.53,7.53,0,0,1-7.53-7.52Z" transform="translate(-39.63 -40.3)"/><path class="cls-2" d="M325.33,84.07a5.9,5.9,0,1,1,5.9,5.91,5.9,5.9,0,0,1-5.9-5.91Z" transform="translate(-39.63 -40.3)"/><path class="cls-2" d="M449.47,295.45a4,4,0,1,1,4,4.05,4.05,4.05,0,0,1-4-4.05Z" transform="translate(-39.63 -40.3)"/><path class="cls-2" d="M437.2,334.53a4.05,4.05,0,1,1,4.05,4.05,4.05,4.05,0,0,1-4.05-4.05Z" transform="translate(-39.63 -40.3)"/><path class="cls-2" d="M409.87,380.68a4,4,0,1,1,4.05,4.05,4.05,4.05,0,0,1-4.05-4.05Z" transform="translate(-39.63 -40.3)"/><path class="cls-2" d="M367.19,418a4.05,4.05,0,1,1,4.05,4.05,4,4,0,0,1-4.05-4.05Z" transform="translate(-39.63 -40.3)"/><path class="cls-2" d="M318.1,444.21a4,4,0,1,1,4,4.05,4.06,4.06,0,0,1-4-4.05Z" transform="translate(-39.63 -40.3)"/><path class="cls-2" d="M279,456.37a4,4,0,1,1,4,4.05,4.05,4.05,0,0,1-4-4.05Z" transform="translate(-39.63 -40.3)"/><path class="cls-2" d="M415.57,298.77a6.82,6.82,0,1,1,6.82,6.81,6.81,6.81,0,0,1-6.82-6.81Z" transform="translate(-39.63 -40.3)"/><path class="cls-2" d="M378.57,301.94a10.92,10.92,0,1,1,10.92,10.91,10.92,10.92,0,0,1-10.92-10.91Z" transform="translate(-39.63 -40.3)"/><path class="cls-2" d="M334.73,302.53a11.74,11.74,0,1,1,11.74,11.74,11.74,11.74,0,0,1-11.74-11.74Z" transform="translate(-39.63 -40.3)"/><path class="cls-2" d="M288.28,307.26a13.2,13.2,0,1,1,13.2,13.2,13.2,13.2,0,0,1-13.2-13.2Z" transform="translate(-39.63 -40.3)"/><path class="cls-2" d="M287.54,352.23a11.56,11.56,0,1,1,11.55,11.56,11.55,11.55,0,0,1-11.55-11.56Z" transform="translate(-39.63 -40.3)"/><path class="cls-2" d="M332,346.5A10.51,10.51,0,1,1,342.46,357,10.51,10.51,0,0,1,332,346.5Z" transform="translate(-39.63 -40.3)"/><path class="cls-2" d="M377,346.77a8.46,8.46,0,1,1,8.46,8.46,8.46,8.46,0,0,1-8.46-8.46Z" transform="translate(-39.63 -40.3)"/><path class="cls-2" d="M407.06,340.1a5.23,5.23,0,1,1,5.23,5.22,5.23,5.23,0,0,1-5.23-5.22Z" transform="translate(-39.63 -40.3)"/><path class="cls-2" d="M285.13,394.27a10.27,10.27,0,1,1,10.27,10.27,10.27,10.27,0,0,1-10.27-10.27Z" transform="translate(-39.63 -40.3)"/><path class="cls-2" d="M328.42,386.54a7.82,7.82,0,1,1,7.81,7.81,7.81,7.81,0,0,1-7.81-7.81Z" transform="translate(-39.63 -40.3)"/><path class="cls-2" d="M372.39,387.21a6.53,6.53,0,1,1,6.53,6.52,6.53,6.53,0,0,1-6.53-6.52Z" transform="translate(-39.63 -40.3)"/><path class="cls-2" d="M283.68,432.29a7.53,7.53,0,1,1,7.53,7.52,7.53,7.53,0,0,1-7.53-7.52Z" transform="translate(-39.63 -40.3)"/><path class="cls-2" d="M325.33,422a5.9,5.9,0,1,1,5.9,5.9,5.9,5.9,0,0,1-5.9-5.9Z" transform="translate(-39.63 -40.3)"/><path class="cls-2" d="M246.51,44.35a4.05,4.05,0,1,1,4.05,4,4,4,0,0,1-4.05-4Z" transform="translate(-39.63 -40.3)"/><path class="cls-1" d="M235.24,194.87a15.32,15.32,0,1,1,15.32,15.31,15.32,15.32,0,0,1-15.32-15.31Z" transform="translate(-39.63 -40.3)"/><path class="cls-1" d="M238.05,149.41a12.51,12.51,0,1,1,12.51,12.5,12.51,12.51,0,0,1-12.51-12.5Z" transform="translate(-39.63 -40.3)"/><path class="cls-2" d="M240.29,109a10.27,10.27,0,1,1,10.27,10.27A10.27,10.27,0,0,1,240.29,109Z" transform="translate(-39.63 -40.3)"/><path class="cls-2" d="M243,73.56a7.53,7.53,0,1,1,7.53,7.53A7.52,7.52,0,0,1,243,73.56Z" transform="translate(-39.63 -40.3)"/><path class="cls-2" d="M42.43,209.65a4.05,4.05,0,1,1,4,4,4.06,4.06,0,0,1-4-4Z" transform="translate(-39.63 -40.3)"/><path class="cls-2" d="M54.7,170.57a4,4,0,1,1,4,4.05,4.05,4.05,0,0,1-4-4.05Z" transform="translate(-39.63 -40.3)"/><path class="cls-2" d="M82,124.42a4,4,0,1,1,4,4,4,4,0,0,1-4-4Z" transform="translate(-39.63 -40.3)"/><path class="cls-2" d="M124.71,87.08a4,4,0,1,1,4,4,4.05,4.05,0,0,1-4-4Z" transform="translate(-39.63 -40.3)"/><path class="cls-2" d="M173.8,60.89a4.05,4.05,0,1,1,4,4,4,4,0,0,1-4-4Z" transform="translate(-39.63 -40.3)"/><path class="cls-2" d="M212.92,48.73A4.05,4.05,0,1,1,217,52.78a4.05,4.05,0,0,1-4.05-4.05Z" transform="translate(-39.63 -40.3)"/><path class="cls-2" d="M70.8,206.34a6.82,6.82,0,1,1,6.81,6.81,6.81,6.81,0,0,1-6.81-6.81Z" transform="translate(-39.63 -40.3)"/><path class="cls-2" d="M99.6,203.17a10.92,10.92,0,1,1,10.92,10.91A10.91,10.91,0,0,1,99.6,203.17Z" transform="translate(-39.63 -40.3)"/><path class="cls-2" d="M141.79,202.57a11.74,11.74,0,1,1,11.74,11.74,11.74,11.74,0,0,1-11.74-11.74Z" transform="translate(-39.63 -40.3)"/><path class="cls-1" d="M185.32,197.84a13.2,13.2,0,1,1,13.2,13.2,13.2,13.2,0,0,1-13.2-13.2Z" transform="translate(-39.63 -40.3)"/><path class="cls-2" d="M189.35,152.87a11.56,11.56,0,1,1,11.56,11.55,11.56,11.56,0,0,1-11.56-11.55Z" transform="translate(-39.63 -40.3)"/><path class="cls-2" d="M147,158.6a10.51,10.51,0,1,1,10.51,10.52A10.51,10.51,0,0,1,147,158.6Z" transform="translate(-39.63 -40.3)"/><path class="cls-2" d="M106.1,158.34a8.46,8.46,0,1,1,8.46,8.45,8.46,8.46,0,0,1-8.46-8.45Z" transform="translate(-39.63 -40.3)"/><path class="cls-2" d="M82.49,165a5.23,5.23,0,1,1,5.22,5.23A5.22,5.22,0,0,1,82.49,165Z" transform="translate(-39.63 -40.3)"/><path class="cls-2" d="M194.33,110.83A10.27,10.27,0,1,1,204.6,121.1a10.27,10.27,0,0,1-10.27-10.27Z" transform="translate(-39.63 -40.3)"/><path class="cls-2" d="M156,118.56a7.81,7.81,0,1,1,7.81,7.81,7.81,7.81,0,0,1-7.81-7.81Z" transform="translate(-39.63 -40.3)"/><path class="cls-2" d="M114.56,117.9a6.52,6.52,0,1,1,6.52,6.52,6.52,6.52,0,0,1-6.52-6.52Z" transform="translate(-39.63 -40.3)"/><path class="cls-2" d="M201.27,72.82a7.53,7.53,0,1,1,7.52,7.52,7.53,7.53,0,0,1-7.52-7.52Z" transform="translate(-39.63 -40.3)"/><path class="cls-2" d="M162.87,83.13a5.9,5.9,0,1,1,5.9,5.9,5.9,5.9,0,0,1-5.9-5.9Z" transform="translate(-39.63 -40.3)"/><path class="cls-2" d="M246.51,459.82a4.05,4.05,0,1,1,4.05,4.05,4,4,0,0,1-4.05-4.05Z" transform="translate(-39.63 -40.3)"/><path class="cls-2" d="M235.24,309.3a15.32,15.32,0,1,1,15.32,15.31,15.32,15.32,0,0,1-15.32-15.31Z" transform="translate(-39.63 -40.3)"/><path class="cls-2" d="M238.05,354.76a12.51,12.51,0,1,1,12.51,12.5,12.51,12.51,0,0,1-12.51-12.5Z" transform="translate(-39.63 -40.3)"/><path class="cls-2" d="M240.29,395.17a10.27,10.27,0,1,1,10.27,10.27,10.27,10.27,0,0,1-10.27-10.27Z" transform="translate(-39.63 -40.3)"/><path class="cls-2" d="M243,430.6a7.53,7.53,0,1,1,7.53,7.53A7.53,7.53,0,0,1,243,430.6Z" transform="translate(-39.63 -40.3)"/><path class="cls-2" d="M42.43,294.51a4.05,4.05,0,1,1,4,4.05,4.06,4.06,0,0,1-4-4.05Z" transform="translate(-39.63 -40.3)"/><path class="cls-2" d="M54.7,333.59a4,4,0,1,1,4,4.05,4,4,0,0,1-4-4.05Z" transform="translate(-39.63 -40.3)"/><path class="cls-2" d="M82,379.74a4,4,0,1,1,4,4.05,4.05,4.05,0,0,1-4-4.05Z" transform="translate(-39.63 -40.3)"/><path class="cls-2" d="M124.71,417.08a4,4,0,1,1,4,4.05,4.05,4.05,0,0,1-4-4.05Z" transform="translate(-39.63 -40.3)"/><path class="cls-2" d="M173.8,443.27a4.05,4.05,0,1,1,4,4.05,4.05,4.05,0,0,1-4-4.05Z" transform="translate(-39.63 -40.3)"/><path class="cls-2" d="M212.92,455.43a4.05,4.05,0,1,1,4.05,4.05,4.05,4.05,0,0,1-4.05-4.05Z" transform="translate(-39.63 -40.3)"/><path class="cls-2" d="M70.8,297.83a6.82,6.82,0,1,1,6.81,6.81,6.81,6.81,0,0,1-6.81-6.81Z" transform="translate(-39.63 -40.3)"/><path class="cls-2" d="M99.6,301a10.92,10.92,0,1,1,10.92,10.92A10.92,10.92,0,0,1,99.6,301Z" transform="translate(-39.63 -40.3)"/><path class="cls-2" d="M141.79,301.59a11.74,11.74,0,1,1,11.74,11.74,11.74,11.74,0,0,1-11.74-11.74Z" transform="translate(-39.63 -40.3)"/><path class="cls-2" d="M185.32,306.32a13.2,13.2,0,1,1,13.2,13.2,13.2,13.2,0,0,1-13.2-13.2Z" transform="translate(-39.63 -40.3)"/><path class="cls-2" d="M189.35,351.29a11.56,11.56,0,1,1,11.56,11.56,11.56,11.56,0,0,1-11.56-11.56Z" transform="translate(-39.63 -40.3)"/><path class="cls-2" d="M147,345.56a10.51,10.51,0,1,1,10.51,10.51A10.5,10.5,0,0,1,147,345.56Z" transform="translate(-39.63 -40.3)"/><path class="cls-2" d="M106.1,345.83a8.46,8.46,0,1,1,8.46,8.45,8.46,8.46,0,0,1-8.46-8.45Z" transform="translate(-39.63 -40.3)"/><path class="cls-2" d="M82.49,339.16a5.23,5.23,0,1,1,5.22,5.22,5.22,5.22,0,0,1-5.22-5.22Z" transform="translate(-39.63 -40.3)"/><path class="cls-2" d="M194.33,393.33A10.27,10.27,0,1,1,204.6,403.6a10.26,10.26,0,0,1-10.27-10.27Z" transform="translate(-39.63 -40.3)"/><path class="cls-2" d="M156,385.6a7.81,7.81,0,1,1,7.81,7.81A7.81,7.81,0,0,1,156,385.6Z" transform="translate(-39.63 -40.3)"/><path class="cls-2" d="M114.56,386.27a6.52,6.52,0,1,1,6.52,6.52,6.52,6.52,0,0,1-6.52-6.52Z" transform="translate(-39.63 -40.3)"/><path class="cls-2" d="M201.27,431.35a7.53,7.53,0,1,1,7.52,7.52,7.53,7.53,0,0,1-7.52-7.52Z" transform="translate(-39.63 -40.3)"/><path class="cls-2" d="M162.87,421a5.9,5.9,0,1,1,5.9,5.9,5.9,5.9,0,0,1-5.9-5.9Z" transform="translate(-39.63 -40.3)"/></svg>